<?xml version="1.0" encoding="UTF-8"?>
<svg version="1.1" xmlns="http://www.w3.org/2000/svg" width="1024" height="1024">
<path d="M0 0 C337.92 0 675.84 0 1024 0 C1024 337.92 1024 675.84 1024 1024 C686.08 1024 348.16 1024 0 1024 C0 686.08 0 348.16 0 0 Z " fill="#043E1D" transform="translate(0,0)"/>
<path d="M0 0 C0.69715118 0.00093658 1.39430237 0.00187317 2.11257935 0.00283813 C38.69197949 0.10865386 77.30893988 7.11890912 110.4375 23.1875 C111.98075004 23.89416062 113.52513548 24.59834414 115.0703125 25.30078125 C140.21436087 36.83754569 162.85894483 51.70700265 183.4375 70.1875 C183.95505859 70.64866211 184.47261719 71.10982422 185.00585938 71.58496094 C196.35610192 81.71961984 207.06934419 92.16641511 216.4375 104.1875 C217.23800781 105.19425781 218.03851562 106.20101562 218.86328125 107.23828125 C250.98480289 147.93767358 270.3916452 196.83481016 276.4375 248.1875 C276.53538818 248.9084082 276.63327637 249.62931641 276.73413086 250.37207031 C277.75036375 258.66511092 277.62355805 267.01867705 277.62280273 275.36035156 C277.62496678 278.02165279 277.64310766 280.682523 277.66210938 283.34375 C277.71690107 299.61001138 276.54587771 315.68155803 273.1875 331.625 C272.97206543 332.66938232 272.75663086 333.71376465 272.53466797 334.78979492 C259.84614162 394.5637284 228.61192166 451.57178395 181.4375 491.1875 C180.87369629 491.66364746 180.30989258 492.13979492 179.72900391 492.63037109 C151.55853206 516.31833918 120.37956179 534.42621375 85.5456543 546.45874023 C84.17543125 546.93240738 82.80934198 547.41826924 81.44848633 547.91821289 C74.7311984 550.30916561 67.81265167 551.79390771 60.85571289 553.29467773 C58.76994741 553.74568673 56.68671749 554.20723411 54.60351562 554.66992188 C-10.0931277 568.87335304 -86.04121515 559.64968877 -142.57617188 523.47265625 C-143.5594043 522.83650391 -143.5594043 522.83650391 -144.5625 522.1875 C-145.44744141 521.62160156 -146.33238281 521.05570313 -147.24414062 520.47265625 C-159.31638336 512.7158306 -170.94343023 504.86047753 -181.5625 495.1875 C-182.95633836 493.97686597 -184.35195784 492.76827703 -185.75 491.5625 C-187.02281533 490.4397429 -188.29354374 489.31461684 -189.5625 488.1875 C-190.36300781 487.47980469 -191.16351563 486.77210938 -191.98828125 486.04296875 C-200.07504118 478.83973949 -207.470039 471.52751487 -214.23828125 463.05859375 C-215.71965831 461.22865739 -217.23507393 459.4254066 -218.79296875 457.66015625 C-249.46897607 422.66792679 -268.95304683 377.60690333 -277.875 332.3125 C-278.02219482 331.57926514 -278.16938965 330.84603027 -278.32104492 330.09057617 C-281.40761943 313.29592649 -281.97182077 296.28159644 -281.9375 279.25 C-281.93695618 278.22591034 -281.93641235 277.20182068 -281.93585205 276.146698 C-281.84007819 236.74035078 -273.60205311 198.81416775 -256.5625 163.1875 C-256.2310498 162.49285645 -255.89959961 161.79821289 -255.55810547 161.08251953 C-236.82155806 122.11745733 -208.70045844 83.81902898 -173.21923828 58.38232422 C-171.40533312 57.07415271 -169.62239181 55.72946041 -167.83984375 54.37890625 C-160.02377181 48.49219985 -152.01953609 43.12569939 -143.5625 38.1875 C-142.96920898 37.83478027 -142.37591797 37.48206055 -141.76464844 37.11865234 C-98.90467645 11.69647639 -49.61290159 -0.08716696 0 0 Z " fill="#043E1D" transform="translate(515.5625,117.8125)"/>
<path d="M0 0 C2.67752399 -0.30104216 5.12521881 -0.40425744 7.80586243 -0.38095093 C8.62171552 -0.3856309 9.43756862 -0.39031087 10.27814454 -0.39513266 C13.02844701 -0.407155 15.77825776 -0.39759669 18.52856445 -0.38818359 C20.49476412 -0.39224669 22.46096151 -0.39758708 24.42715454 -0.40411377 C29.78576971 -0.41784142 35.14421239 -0.41246183 40.50283074 -0.40297651 C46.1211292 -0.39538779 51.73941276 -0.40242522 57.35771179 -0.40713501 C66.81459194 -0.4126034 76.27140198 -0.40538152 85.72827148 -0.39111328 C96.61609088 -0.37487426 107.50374098 -0.38000681 118.39155608 -0.3965925 C127.75831609 -0.41028408 137.12502558 -0.41208713 146.49179238 -0.40427649 C152.07656534 -0.39963029 157.66125931 -0.39888825 163.24602699 -0.40888596 C168.51804084 -0.41766209 173.78984123 -0.41134298 179.06183243 -0.39420319 C180.98001568 -0.39029053 182.8982174 -0.39128065 184.8163929 -0.39799118 C223.1262707 -0.51947145 260.2281816 8.91452467 288.375 36 C300.53420644 48.64949702 308.45901825 63.89525763 312 81 C312.28617188 82.33998047 312.28617188 82.33998047 312.578125 83.70703125 C314.23130257 96.61100063 313.81882592 110.25989624 311.25 123 C311.01470581 124.17103271 311.01470581 124.17103271 310.7746582 125.36572266 C305.89594934 147.01923433 289.62865675 165.80654533 271.546875 177.83984375 C256.65989181 187.12541155 234.90104034 198.87816424 217 198 C217.65742187 198.84175781 218.31484375 199.68351563 218.9921875 200.55078125 C233.35534568 219.19347956 246.24356085 238.90116159 257.61425781 259.49804688 C259.95681284 263.72752254 262.35211859 267.92671064 264.75 272.125 C265.2337207 272.97191406 265.71744141 273.81882812 266.21582031 274.69140625 C293.70814897 328.17414571 293.70814897 328.17414571 339.88671875 362.48046875 C342.90757932 363.22312024 345.91488769 363.61436096 349 364 C350.80746134 365.80746134 350.17303483 368.50445781 350.1875 370.9375 C350.20167969 372.01902344 350.21585938 373.10054687 350.23046875 374.21484375 C350 377 350 377 348 379 C345.51339722 379.26742554 345.51339722 379.26742554 342.33544922 379.29052734 C341.14595673 379.30328705 339.95646423 379.31604675 338.73092651 379.32919312 C337.43526764 379.33141876 336.13960876 379.33364441 334.8046875 379.3359375 C333.4558193 379.34237098 332.10695248 379.34909974 330.75808716 379.35610962 C327.9182819 379.36811138 325.07859837 379.37178862 322.23876953 379.37060547 C319.35439605 379.37044428 316.47066674 379.38410034 313.58642578 379.41162109 C282.77060341 379.70140522 282.77060341 379.70140522 270 375 C268.76926758 374.56977539 268.76926758 374.56977539 267.51367188 374.13085938 C238.55174687 362.99987069 224.15539885 329.27992136 210 304 C209.38850098 302.90913086 208.77700195 301.81826172 208.14697266 300.69433594 C205.73167151 296.3824389 203.31887903 292.0691582 200.91088867 287.75317383 C196.97297094 280.70352566 192.95071662 273.71402263 188.82421875 266.7734375 C186.50930132 262.87690484 184.23078167 258.95970084 181.95703125 255.0390625 C169.0932672 228.21011879 169.0932672 228.21011879 149 209 C146.28784318 208.76417598 143.66798936 208.62803496 140.953125 208.5859375 C140.18192322 208.56657135 139.41072144 208.5472052 138.6161499 208.5272522 C136.16087795 208.46762923 133.70555867 208.42114086 131.25 208.375 C129.58201118 208.33680425 127.91404174 208.29775159 126.24609375 208.2578125 C122.16422057 208.16194209 118.08225507 208.07784765 114 208 C114.06061968 224.7945754 114.13817948 241.58897658 114.23571491 258.38337612 C114.28061412 266.18192121 114.32004221 273.98042124 114.34643555 281.77905273 C114.36946335 288.57909398 114.40291445 295.37899191 114.44870156 302.17891937 C114.47256961 305.77695413 114.49134027 309.3748475 114.49761391 312.97295952 C114.50482613 316.99706993 114.53531641 321.02069051 114.56762695 325.04467773 C114.56619186 326.22791626 114.56475677 327.41115479 114.5632782 328.63024902 C114.67141075 338.17053618 116.04136092 346.10927311 122.828125 353.1484375 C132.26626482 361.19462144 143.35588094 362.41358841 155.2409668 363.70629883 C157 364 157 364 158 365 C158.07244053 367.01964199 158.08377188 369.04167124 158.0625 371.0625 C158.05347656 372.16722656 158.04445313 373.27195312 158.03515625 374.41015625 C158.02355469 375.26480469 158.01195312 376.11945313 158 377 C154.53089893 379.11945417 151.78992953 379.25327775 147.76193237 379.26069641 C146.48037262 379.26778122 145.19881287 379.27486603 143.87841797 379.28216553 C142.46044887 379.2798718 141.0424801 379.27736211 139.62451172 379.2746582 C138.12964625 379.27900582 136.63478302 379.28418913 135.1399231 379.29014587 C131.08227873 379.30353827 127.02472749 379.30411454 122.96706533 379.30158257 C119.58202841 379.30051355 116.19701039 379.30539419 112.81197751 379.310188 C104.83020371 379.32128288 96.84847699 379.32171995 88.86669922 379.31567383 C80.62323278 379.30962577 72.37993666 379.32196612 64.13649929 379.3432439 C57.06382337 379.36083066 49.99120182 379.36686611 42.91850483 379.36360615 C38.69194921 379.3617893 34.46551523 379.36446979 30.23897934 379.37832069 C26.26791622 379.39084787 22.29712002 379.3890039 18.32606125 379.37590981 C16.86592012 379.37353368 15.4057605 379.37631554 13.94564056 379.38453293 C11.95848463 379.39491334 9.97125336 379.38514609 7.98410034 379.3742218 C6.31330823 379.37447341 6.31330823 379.37447341 4.60876274 379.37473011 C3.74787104 379.25106917 2.88697933 379.12740824 2 379 C-0.28062828 375.57905758 -0.21925007 374.31812778 -0.125 370.3125 C-0.09792969 368.82169922 -0.09792969 368.82169922 -0.0703125 367.30078125 C-0.04710937 366.54152344 -0.02390625 365.78226563 0 365 C1.30710937 364.76216797 1.30710937 364.76216797 2.640625 364.51953125 C12.96587529 362.49694434 24.71416395 360.15319748 32 352 C36.23924994 344.79427728 39.11913065 338.40855502 39.13142776 329.98574066 C39.13718948 328.49890691 39.13718948 328.49890691 39.1430676 326.98203611 C39.14220112 325.90043856 39.14133463 324.81884101 39.14044189 323.70446777 C39.14341302 322.54963913 39.14638414 321.3948105 39.1494453 320.20498705 C39.15661643 317.0033262 39.15930391 313.80169808 39.16004276 310.60003042 C39.1618964 307.1451619 39.16944544 303.69030493 39.17617798 300.23544312 C39.18975096 292.68138984 39.1957848 285.12734187 39.20018864 277.57327843 C39.20295359 272.85289269 39.20719148 268.13250899 39.21169281 263.41212463 C39.2238856 250.33338296 39.23418393 237.25464292 39.2375679 224.17589569 C39.23778747 223.33904001 39.23800703 222.50218432 39.23823325 221.63996938 C39.23845153 220.80114562 39.23866981 219.96232186 39.2388947 219.0980792 C39.23933816 217.39839395 39.23978472 215.69870869 39.24023438 213.99902344 C39.24056652 212.73437786 39.24056652 212.73437786 39.24090537 211.44418389 C39.2448498 197.79595551 39.2622929 184.14778065 39.2855939 170.49957293 C39.30934373 156.47476584 39.32177145 142.44998554 39.32293582 128.42515802 C39.3238507 120.55584455 39.32955543 112.68660074 39.34775543 104.81730652 C39.36320572 98.1134225 39.36824807 91.40962967 39.36001733 84.70573121 C39.35612778 81.28941769 39.35695656 77.87328752 39.37107468 74.45699692 C39.38383085 70.74164258 39.37789686 67.02675306 39.36749268 63.31140137 C39.37554908 62.24764959 39.38360548 61.18389781 39.39190602 60.08791113 C39.31044338 47.57667793 37.27196881 37.32317985 28.3359375 28.32421875 C19.73250426 20.40827447 8.96232097 18.03955263 -2 15 C-2.05406122 13.06280622 -2.09282025 11.12518079 -2.125 9.1875 C-2.14820313 8.10855469 -2.17140625 7.02960938 -2.1953125 5.91796875 C-2 3 -2 3 0 0 Z " fill="#F4E8C8" transform="translate(340,209)"/>
<path d="M0 0 C0.51643066 0.4120166 1.03286133 0.8240332 1.56494141 1.24853516 C18.41597773 14.80749885 34.21801867 30.55019613 47 48 C47.79664063 48.99 48.59328125 49.98 49.4140625 51 C62.63188663 67.4488478 72.69925494 86.13108742 82 105 C82.37995117 105.76844238 82.75990234 106.53688477 83.15136719 107.32861328 C101.67445724 145.35643181 109.88180691 188.3055489 109.5 230.375 C109.4947934 231.57002136 109.48958679 232.76504272 109.48422241 233.99627686 C109.39263571 251.96136162 108.68895551 269.36758077 105 287 C104.81808105 287.91539551 104.63616211 288.83079102 104.44873047 289.77392578 C103.20430081 295.92045191 101.6860059 301.96083563 100 308 C99.59056152 309.485 99.59056152 309.485 99.17285156 311 C92.14564005 336.0960747 82.16925662 359.51878108 69 382 C68.57364258 382.72864258 68.14728516 383.45728516 67.70800781 384.20800781 C57.75532511 401.02733124 46.12204981 416.53642443 33 431 C32.47486816 431.58152832 31.94973633 432.16305664 31.40869141 432.76220703 C22.70794843 442.3737122 13.93575639 451.65742853 3.78515625 459.76953125 C2.02344243 461.18038481 0.27864618 462.6128622 -1.44140625 464.07421875 C-16.67503812 476.97155027 -33.46465536 487.54354164 -51 497 C-51.68449219 497.37318359 -52.36898438 497.74636719 -53.07421875 498.13085938 C-94.67937511 520.62127351 -141.2471665 530.22196259 -188.1875 530.25 C-189.71543182 530.25101212 -189.71543182 530.25101212 -191.27423096 530.25204468 C-261.38186831 530.17845855 -331.69345811 506.04762328 -383.7578125 458.05859375 C-385.69745049 456.27777629 -387.67518423 454.57208176 -389.6875 452.875 C-399.16619695 444.59077299 -408.14943244 435.52766756 -415.921875 425.625 C-417.30354492 423.87973273 -418.73140698 422.17003463 -420.203125 420.5 C-429.2764385 410.16483496 -436.59278803 398.5554084 -444 387 C-444.50096191 386.21931152 -445.00192383 385.43862305 -445.51806641 384.63427734 C-453.28651868 372.37675936 -459.28257281 359.31707122 -465 346 C-465.37398926 345.1342334 -465.74797852 344.2684668 -466.13330078 343.37646484 C-475.86146479 320.48587497 -481.52456858 295.5695009 -485 271 C-485.11569336 270.24509277 -485.23138672 269.49018555 -485.35058594 268.71240234 C-496.72719913 192.63763136 -472.49911766 113.87746859 -427.625 52.625 C-423.38861421 46.94008146 -419.034628 41.4555101 -414.16015625 36.30078125 C-412.31448576 34.33495862 -410.5523514 32.33126604 -408.79296875 30.2890625 C-398.88054369 18.92114212 -388.00239275 8.14468019 -376 -1 C-374.7397896 -1.99861869 -373.48076919 -2.99874011 -372.22265625 -4 C-335.84399221 -32.69653277 -294.12251871 -51.01033581 -249 -61 C-248.2570166 -61.16725586 -247.5140332 -61.33451172 -246.74853516 -61.50683594 C-160.91689205 -80.31094149 -67.59518753 -54.43026965 0 0 Z M-312.95458984 -19.08154297 C-315.16982515 -17.91020227 -317.40462717 -16.78355996 -319.64453125 -15.66015625 C-330.38058061 -10.22651575 -340.31629867 -4.13890867 -350 3 C-350.57443848 3.4228125 -351.14887695 3.845625 -351.74072266 4.28125 C-355.55654021 7.11187676 -359.28777384 10.03488854 -363 13 C-363.95261719 13.74636719 -364.90523438 14.49273437 -365.88671875 15.26171875 C-373.62313471 21.54186818 -380.69121374 28.47989009 -387.75 35.5 C-388.23982361 35.98455658 -388.72964722 36.46911316 -389.23431396 36.96835327 C-398.53520435 46.19188238 -406.80006809 56.05060488 -414.4375 66.6875 C-414.98680176 67.45078613 -415.53610352 68.21407227 -416.10205078 69.00048828 C-421.01981633 75.90419223 -425.57790969 82.99428363 -429.94482422 90.25683594 C-430.87265516 91.78962468 -431.82688424 93.30636853 -432.78515625 94.8203125 C-456.89273672 133.91676687 -468.45116928 181.66810174 -468.26074219 227.2644043 C-468.25005033 230.29821929 -468.26068736 233.33143753 -468.2734375 236.36523438 C-468.28710736 253.42245295 -467.1794718 270.15926326 -463.625 286.875 C-463.40585937 287.93452881 -463.18671875 288.99405762 -462.9609375 290.08569336 C-461.32209668 297.85172645 -459.37751562 305.42512466 -457 313 C-456.66742188 314.18335938 -456.33484375 315.36671875 -455.9921875 316.5859375 C-445.23012457 354.28712279 -423.47967874 390.04026052 -397.046875 418.76953125 C-395.15328813 420.83296274 -393.32173836 422.93574581 -391.5 425.0625 C-385.19005953 432.29051496 -378.24997118 438.73647682 -371 445 C-370.05265991 445.82334839 -370.05265991 445.82334839 -369.08618164 446.66333008 C-358.75227473 455.58508375 -347.97577788 463.35363644 -336.36669922 470.53320312 C-334.22226959 471.86224513 -332.09673593 473.21693022 -329.97265625 474.578125 C-321.12997756 480.12375885 -311.81792349 484.54099965 -302.3125 488.8125 C-301.11310791 489.35197266 -299.91371582 489.89144531 -298.67797852 490.44726562 C-286.27659401 495.91709072 -273.78902513 500.32952867 -260.625 503.5625 C-259.42762207 503.85914551 -258.23024414 504.15579102 -256.99658203 504.46142578 C-245.43523694 507.25525221 -233.78640596 509.40791429 -222 511 C-221.27369385 511.1038501 -220.5473877 511.2077002 -219.79907227 511.31469727 C-210.65403478 512.43777204 -201.38535983 512.19950203 -192.1875 512.1875 C-191.26727051 512.18656342 -190.34704102 512.18562683 -189.39892578 512.18466187 C-168.23003642 512.13784641 -148.54781916 510.13254995 -127.83691406 505.6171875 C-125.32927674 505.07163611 -122.81832645 504.54821627 -120.3046875 504.03125 C-82.10890546 495.91798128 -45.30468548 475.09534915 -15 451 C-14.1234375 450.31808594 -13.246875 449.63617187 -12.34375 448.93359375 C0.05015228 439.09686709 11.75129398 428.05278535 22 416 C22.83273437 415.06671875 23.66546875 414.1334375 24.5234375 413.171875 C68.43306219 363.47398246 91.19257009 297.0385697 91.25 231.25 C91.25200912 229.88888596 91.25200912 229.88888596 91.25405884 228.50027466 C91.24946701 214.13054994 90.48087931 200.17812297 88 186 C87.76876753 184.55741388 87.53825752 183.1147117 87.30859375 181.671875 C76.60245975 117.41183048 41.12067549 56.51072397 -10 16 C-11.70847566 14.56266916 -13.41680599 13.12516555 -15.125 11.6875 C-38.43419613 -7.2759138 -65.40116085 -22.6491436 -94 -32 C-95.32655315 -32.46975115 -96.65202405 -32.9425665 -97.9765625 -33.41796875 C-106.82562596 -36.5477257 -115.74915224 -39.0528231 -124.875 -41.25 C-125.89634033 -41.49613037 -126.91768066 -41.74226074 -127.9699707 -41.99584961 C-188.25730146 -56.10461423 -258.20458376 -48.37602977 -312.95458984 -19.08154297 Z " fill="#F2E9C8" transform="translate(702,166)"/>
<path d="M0 0 C81.13807398 0 81.13807398 0 104.76171875 22.734375 C105.50035156 23.48203125 106.23898437 24.2296875 107 25 C107.70769531 25.68578125 108.41539062 26.3715625 109.14453125 27.078125 C124.34393632 42.77158339 126.52532907 63.9775345 126.28125 84.8203125 C125.58034751 107.67674257 115.11787711 126.57320779 98.765625 142.125 C93.97056584 146.24424545 88.84678784 149.36972652 83.25 152.25 C82.64341553 152.56727051 82.03683105 152.88454102 81.41186523 153.21142578 C55.45410589 165.93129601 29.56007799 160 0 160 C0 107.2 0 54.4 0 0 Z " fill="#053D1C" transform="translate(454,233)"/>
<path d="M0 0 C5.39327734 -0.0664758 10.78629484 -0.11460155 16.17993164 -0.13879395 C17.84405247 -0.14683743 19.5081622 -0.15784106 21.17224121 -0.17211914 C43.6614233 -0.34584941 68.62825633 1.06506706 85.96807861 17.22393799 C96.0490723 27.90218983 97.65302456 38.08073801 97.42120361 52.09893799 C97.00462625 63.01163128 92.00208542 69.69944461 84.15557861 77.03643799 C75.90895116 83.92914153 65.27772665 87.78014757 55.15557861 91.03643799 C55.90387939 91.97036377 55.90387939 91.97036377 56.66729736 92.92315674 C65.44883722 104.22722151 72.65921556 116.53346685 80.01104736 128.79425049 C86.27618549 139.21075673 92.93543727 149.25385981 100.15557861 159.03643799 C100.83749268 159.97358643 101.51940674 160.91073486 102.22198486 161.87628174 C104.27966195 164.17506038 105.81729251 165.13945936 108.65557861 166.28643799 C109.40839111 166.60096924 110.16120361 166.91550049 110.93682861 167.23956299 C112.9959002 167.9790887 115.0236626 168.55191162 117.15557861 169.03643799 C117.19799585 171.36938574 117.19650799 173.70346366 117.15557861 176.03643799 C114.43850972 178.75350688 106.45447782 177.26665434 102.53033447 177.27667236 C100.25854295 177.28626709 97.98770003 177.3172197 95.71612549 177.34893799 C77.28909649 177.49015879 77.28909649 177.49015879 69.80401611 171.72784424 C60.20681046 161.97493171 54.0386127 148.74028106 47.35284424 136.90338135 C42.24482877 127.87002454 36.9450697 118.97744652 31.49639893 110.14385986 C30.95338135 109.26278564 30.41036377 108.38171143 29.85089111 107.47393799 C29.37667725 106.70952393 28.90246338 105.94510986 28.41387939 105.15753174 C27.23456697 103.16958717 26.18928083 101.10384243 25.15557861 99.03643799 C19.54557861 98.70643799 13.93557861 98.37643799 8.15557861 98.03643799 C8.21866355 105.34766875 8.29421406 112.6585202 8.39129353 119.96938419 C8.43588933 123.36467648 8.47516835 126.75985177 8.50201416 130.15533447 C8.53316543 134.06517784 8.58795038 137.9745235 8.64385986 141.88409424 C8.65024979 143.09477066 8.65663971 144.30544708 8.66322327 145.55281067 C8.79094208 152.91270889 8.98311026 158.77332768 14.34307861 164.28643799 C17.8443289 166.46499372 21.25117467 167.71291123 25.15557861 169.03643799 C25.15557861 171.34643799 25.15557861 173.65643799 25.15557861 176.03643799 C1.72557861 176.03643799 -21.70442139 176.03643799 -45.84442139 176.03643799 C-45.84442139 170.03643799 -45.84442139 170.03643799 -44.84442139 168.03643799 C-42.73504639 167.36065674 -42.73504639 167.36065674 -40.09442139 166.72393799 C-34.62728601 165.1775197 -31.69837419 162.91006483 -28.59442139 158.09893799 C-26.28327473 151.74328469 -26.69003751 144.97705017 -26.68328857 138.3147583 C-26.67832367 137.14000946 -26.67335876 135.96526062 -26.66824341 134.75491333 C-26.65365779 130.87479055 -26.64682582 126.99470866 -26.64129639 123.11456299 C-26.63855849 121.77316005 -26.63570193 120.43175735 -26.63272858 119.09035492 C-26.61907005 112.78670698 -26.60939539 106.48307192 -26.60552669 100.17941022 C-26.60104995 92.92694332 -26.58351311 85.67466527 -26.55452609 78.42225575 C-26.53284193 72.79994047 -26.52281883 67.17767807 -26.52148557 61.55532146 C-26.52044232 58.20485165 -26.51316925 54.85470054 -26.49666595 51.50424957 C-26.47954473 47.76125415 -26.48150087 44.01871488 -26.48797607 40.2756958 C-26.47876129 39.18028473 -26.46954651 38.08487366 -26.46005249 36.95626831 C-26.50308002 28.98605976 -27.07270686 21.28137207 -32.40692139 15.03643799 C-36.23528787 12.80902476 -39.43025475 12.04453464 -43.77020264 11.39581299 C-45.84442139 11.03643799 -45.84442139 11.03643799 -46.84442139 10.03643799 C-47.03192139 6.59893799 -47.03192139 6.59893799 -46.84442139 3.03643799 C-43.91694694 0.10896354 -40.7983142 0.68055361 -36.86785889 0.62237549 C-36.04669083 0.60287338 -35.22552277 0.58337128 -34.37947083 0.5632782 C-31.65956019 0.50210437 -28.93965085 0.45604839 -26.21942139 0.41143799 C-24.32757104 0.37481176 -22.43572537 0.33794355 -20.54388428 0.30084229 C-13.6962356 0.17389168 -6.84823589 0.08772819 0 0 Z " fill="#F2E8C7" transform="translate(276.84442138671875,721.9635620117188)"/>
<path d="M0 0 C0.33 36.96 0.66 73.92 1 112 C21.05770041 95.48573 21.05770041 95.48573 35.625 70.625 C35.315625 69.325625 35.315625 69.325625 35 68 C34.175 67.505 33.35 67.01 32.5 66.5 C31.675 66.005 30.85 65.51 30 65 C29.61307419 61.84010585 29.56939872 59.86120256 31 57 C48.82 57 66.64 57 85 57 C85 59.64 85 62.28 85 65 C83.45372298 66.54627702 81.7003692 66.41647906 79.5625 66.75 C64.77771151 69.66915568 54.43040869 80.48897935 43.85839844 90.48242188 C40.68080625 93.48236194 37.46148301 96.32286052 34 99 C35.60575772 102.43138464 37.58193399 105.50963552 39.67578125 108.6640625 C40.0372525 109.20911438 40.39872375 109.75416626 40.77114868 110.31573486 C41.94838171 112.08765779 43.12983182 113.85670067 44.3125 115.625 C44.71638947 116.22959045 45.12027893 116.83418091 45.53640747 117.45709229 C63.30851494 148.04382456 63.30851494 148.04382456 90 168 C90 170.31 90 172.62 90 175 C70.2 175 50.4 175 30 175 C30 172.36 30 169.72 30 167 C31.65 166.67 33.3 166.34 35 166 C35.65465437 160.08005403 33.51071972 156.5011015 30.625 151.5625 C30.17890381 150.77987793 29.73280762 149.99725586 29.27319336 149.19091797 C24.4078819 140.76884318 19.20205227 132.38818956 13.21484375 124.7109375 C12 123 12 123 12 121 C11.38511719 121.34933594 10.77023437 121.69867187 10.13671875 122.05859375 C9.32847656 122.51363281 8.52023437 122.96867188 7.6875 123.4375 C6.88699219 123.88996094 6.08648438 124.34242188 5.26171875 124.80859375 C3 126 3 126 0 127 C-0.43487493 146.22094491 -0.43487493 146.22094491 7 163 C9.90031127 164.88845829 12.88503303 166.49576381 16 168 C16 170.31 16 172.62 16 175 C-4.46 175 -24.92 175 -46 175 C-46 172.69 -46 170.38 -46 168 C-45.39671875 167.70867187 -44.7934375 167.41734375 -44.171875 167.1171875 C-39.00153746 164.4653047 -35.7285626 162.34343509 -33 157 C-32.02511561 153.89901709 -31.87019873 151.07639066 -31.85955811 147.83406067 C-31.85384796 146.78979919 -31.84813782 145.74553772 -31.84225464 144.66963196 C-31.84057785 142.95914925 -31.84057785 142.95914925 -31.83886719 141.21411133 C-31.83390228 140.00878754 -31.82893738 138.80346375 -31.82382202 137.56161499 C-31.81172403 134.25761772 -31.80425768 130.95368367 -31.79981136 127.64967179 C-31.79687568 125.5825074 -31.79276987 123.5153485 -31.78830719 121.44818687 C-31.77463701 114.97207281 -31.76496882 108.49597136 -31.7611053 102.01984388 C-31.75662989 94.56019727 -31.73910417 87.10073439 -31.7101047 79.64114362 C-31.68843508 73.86517015 -31.67839816 68.08924816 -31.67706418 62.31323451 C-31.67601964 58.868351 -31.67018748 55.4236403 -31.65224457 51.97879982 C-31.63258797 48.13009442 -31.63707385 44.28161556 -31.64355469 40.43286133 C-31.6343399 39.30266068 -31.62512512 38.17246002 -31.6156311 37.00801086 C-31.65625936 29.28702549 -32.68008486 22.86652524 -36.6875 16.1875 C-39.76502078 13.27633169 -43.14043138 11.67685142 -47 10 C-47.09765625 3.84765625 -47.09765625 3.84765625 -47 2 C-35.91196841 -9.08803159 -15.68084465 0 0 0 Z " fill="#F2E8C8" transform="translate(564,723)"/>
<path d="M0 0 C8.98041469 7.27643857 13.44330599 15.65797486 15 27 C15.28172738 31.30438814 15.32387508 35.59746963 15.34375 39.91015625 C15.3583728 41.11764023 15.37299561 42.32512421 15.38806152 43.56919861 C15.44985246 48.69422257 15.48983661 53.81936118 15.53173828 58.94458008 C15.56562254 62.70406235 15.61068756 66.46330024 15.65625 70.22265625 C15.66416565 71.94332054 15.66416565 71.94332054 15.67224121 73.69874573 C15.45514351 84.27072155 15.45514351 84.27072155 19.36584473 93.72743225 C22.07366475 95.83609627 24.68150608 95.22498264 28 95 C30.0064731 94.70814937 32.00994193 94.38830401 34 94 C37.10748065 98.18314703 37.10748065 98.18314703 36.6875 101.375 C31.79711046 108.98227262 24.69131315 112.99339901 16 115 C8.33836608 116.03795879 1.74316642 114.81902697 -5 111 C-9.39280444 107.06959602 -11.01762875 101.43043189 -13 96 C-13.99 96.86625 -14.98 97.7325 -16 98.625 C-26.9084671 107.91577859 -37.98436782 115.43800804 -52.875 115.3125 C-53.57826416 115.30686035 -54.28152832 115.3012207 -55.00610352 115.29541016 C-65.14104894 115.05908798 -73.6692322 111.50497589 -80.79296875 104.1484375 C-86.19611535 97.45120394 -88.66405801 90.15124653 -88.34375 81.54296875 C-87.21930275 73.22461464 -83.21498389 66.53467953 -77 61 C-64.06292204 51.34246124 -49.58599395 46.31948079 -33.8125 43.8125 C-32.75869141 43.63525391 -31.70488281 43.45800781 -30.61914062 43.27539062 C-25.70716003 42.47375044 -20.9959469 41.74977123 -16 42 C-15.7402721 25.17259288 -15.7402721 25.17259288 -22.421875 10.30078125 C-28.42148458 4.90422521 -34.66988552 4.52447841 -42.40234375 4.59765625 C-46.96263729 5.1076565 -50.20223517 6.57749116 -54.109375 8.90625 C-56 10 -56 10 -58 10 C-57.76216797 11.051875 -57.76216797 11.051875 -57.51953125 12.125 C-56.41111936 18.25876806 -55.64949981 24.70414968 -58.875 30.1875 C-62.84281808 33.57181542 -66.16166467 33.33163396 -71.234375 33.28515625 C-76.02062045 32.79165919 -78.59306368 30.40693632 -81.875 27.125 C-83.48661542 24.08083754 -83.52664005 22.42316029 -83 19 C-77.27708929 6.22943073 -64.98269491 -1.56884186 -52.359375 -6.390625 C-34.87357483 -11.67356888 -15.32606212 -10.56804907 0 0 Z " fill="#F1E8C7" transform="translate(746,785)"/>
<path d="M0 0 C1.05509766 -0.01998047 2.11019531 -0.03996094 3.19726562 -0.06054688 C17.58499391 -0.05169289 29.83327756 6.20831346 40.203125 15.91796875 C53.23022089 29.82935426 54.5625 43.70920926 54.5625 62.4375 C27.1725 62.4375 -0.2175 62.4375 -28.4375 62.4375 C-26.5817426 81.13718912 -26.5817426 81.13718912 -17.4375 96.4375 C-9.04843913 103.10572787 -1.10731645 105.79491586 9.5 105.6875 C10.25990234 105.69523438 11.01980469 105.70296875 11.80273438 105.7109375 C23.75812368 105.67009928 33.60724727 101.22799704 42.5625 93.4375 C44.37339765 91.50821436 45.9556946 89.54643209 47.5625 87.4375 C51.8367558 89.0205577 53.82781794 91.94318404 56.5625 95.4375 C47.62429595 107.39671716 38.30464993 115.6289624 24.5625 121.4375 C23.71558594 121.79972656 22.86867188 122.16195312 21.99609375 122.53515625 C6.71611663 127.80834258 -13.13915273 125.47114624 -27.6640625 119 C-42.5128871 111.01923639 -53.52827079 98.51411045 -60 83 C-64.5152723 67.72229783 -62.67364039 47.60737491 -55.4375 33.4375 C-45.96780604 18.03525545 -32.7592033 5.99397432 -15.19702148 1.01318359 C-10.14618829 -0.04050699 -5.14171138 -0.03442412 0 0 Z " fill="#F0E7C6" transform="translate(456.4375,775.5625)"/>
<path d="M0 0 C30.64745011 0 30.64745011 0 42 10 C49.90309095 18.31985551 52.52060352 26.22381593 52.375 37.5 C52.38660156 38.39847656 52.39820313 39.29695312 52.41015625 40.22265625 C52.36515068 50.52893084 49.33740203 56.36797726 42.26171875 63.796875 C30.50435262 75.24964615 16.02941921 72 0 72 C0 48.24 0 24.48 0 0 Z " fill="#053D1C" transform="translate(285,734)"/>
<path d="M0 0 C6.04322597 3.63358524 9.21643738 9.94993105 11.4375 16.4375 C12.5625 21.5625 12.5625 21.5625 12.5625 32.5625 C-3.6075 32.5625 -19.7775 32.5625 -36.4375 32.5625 C-36.4375 21.47635923 -34.67840815 12.94539112 -27.3359375 4.41015625 C-20.11715908 -2.61552727 -9.31190413 -3.87847063 0 0 Z " fill="#063B1B" transform="translate(465.4375,790.4375)"/>
<path d="M0 0 C0.19886761 4.57127802 0.34341878 9.1400035 0.43945312 13.71459961 C0.47950603 15.26778039 0.53397031 16.82066285 0.60351562 18.37280273 C1.16451444 31.22215065 1.16451444 31.22215065 -1.66040039 35.53491211 C-3.70032616 37.35835596 -5.59869039 38.69851239 -8 40 C-8.7729541 40.43699219 -9.5459082 40.87398437 -10.34228516 41.32421875 C-16.88340341 44.7998071 -22.73982328 44.97805301 -29.75 42.875 C-34.39208036 40.19687672 -37.26728395 37.19814814 -39 32 C-39.78921859 26.46547974 -39.52542485 22.07907641 -36.5625 17.25 C-28.79101623 6.98441214 -12.78947036 0 0 0 Z " fill="#053B1B" transform="translate(730,837)"/>
<path d="M0 0 C65.34 0 130.68 0 198 0 C198 0.33 198 0.66 198 1 C186.78821741 1.90260008 175.65015947 2.16705442 164.40649414 2.20532227 C162.59149465 2.21492666 160.77649728 2.22493813 158.96150208 2.23532104 C154.08239436 2.26209916 149.20327723 2.28325345 144.32413793 2.30332303 C139.20724017 2.32535195 134.09037049 2.35265707 128.97349548 2.37937927 C119.3054514 2.42907957 109.63739154 2.47410143 99.9693169 2.51740164 C88.95344059 2.56696906 77.93759247 2.62181417 66.92174351 2.67708123 C44.28118871 2.79055287 21.6406068 2.89746625 -1 3 C-0.67 2.01 -0.34 1.02 0 0 Z " fill="#F6FBE8" transform="translate(340,209)"/>
<path d="M0 0 C4.87461475 -0.09924823 9.74863497 -0.17164581 14.62402344 -0.21972656 C16.28070325 -0.23978009 17.93731282 -0.26703029 19.59375 -0.30175781 C21.98194758 -0.35055512 24.36920547 -0.37303064 26.7578125 -0.390625 C27.85973434 -0.42159271 27.85973434 -0.42159271 28.98391724 -0.45318604 C34.16063642 -0.45541947 37.01376043 0.74921535 41 4 C43.375 6.75 43.375 6.75 45 9 C44.67 9.66 44.34 10.32 44 11 C43.60167969 10.50628906 43.20335937 10.01257813 42.79296875 9.50390625 C42.26316406 8.86324219 41.73335938 8.22257812 41.1875 7.5625 C40.40439453 6.60537109 40.40439453 6.60537109 39.60546875 5.62890625 C36.28403212 2.2589815 31.91584487 2.78835136 27.48828125 2.68359375 C26.76005661 2.66281265 26.03183197 2.64203156 25.28153992 2.62062073 C22.95862125 2.55531254 20.63559094 2.49632763 18.3125 2.4375 C16.73631665 2.39429695 15.16014452 2.35068208 13.58398438 2.30664062 C9.72277025 2.1996504 5.86144397 2.09833039 2 2 C1.97652929 17.10895348 1.95895176 32.21790611 1.94818783 47.32687378 C1.94305475 54.34389865 1.93606976 61.36091213 1.92456055 68.37792969 C1.9134419 75.16011664 1.90770171 81.9422918 1.90512276 88.7244873 C1.90328678 91.30139349 1.89970188 93.87829908 1.89426994 96.4552002 C1.86753301 109.67477116 1.88166928 122.82000768 3 136 C0.28332078 133.28332078 0.06137556 131.25818354 -0.12304783 127.47755051 C-0.12212604 126.52257298 -0.12120424 125.56759544 -0.12025452 124.5836792 C-0.12162918 123.48434052 -0.12300385 122.38500183 -0.12442017 121.25234985 C-0.12082489 120.05113495 -0.11722961 118.84992004 -0.11352539 117.61230469 C-0.11367142 116.34375641 -0.11381744 115.07520813 -0.1139679 113.76821899 C-0.11425474 110.29334589 -0.10837617 106.81850732 -0.10139394 103.34364223 C-0.0951417 99.7108064 -0.09455512 96.07796978 -0.09336853 92.44512939 C-0.09026074 85.56747412 -0.08205477 78.68983475 -0.07201904 71.81218648 C-0.06084078 63.98153149 -0.05534313 56.15087573 -0.05032361 48.32021475 C-0.03987171 32.21346719 -0.02228294 16.10673563 0 0 Z " fill="#052C0E" transform="translate(454,417)"/>
<path d="M0 0 C60.39 0.33 120.78 0.66 183 1 C183 1.33 183 1.66 183 2 C91.92 2.495 91.92 2.495 -1 3 C-0.67 2.01 -0.34 1.02 0 0 Z " fill="#F8F4D7" transform="translate(340,209)"/>
<path d="M0 0 C0.66 0 1.32 0 2 0 C2.5775 0.928125 3.155 1.85625 3.75 2.8125 C6.21771167 6.30842487 8.09714793 7.4033787 12 9 C12 9.66 12 10.32 12 11 C16.7521293 11.91839638 21.41612054 12.20661314 26.2421875 12.31640625 C27.39474533 12.3475779 27.39474533 12.3475779 28.57058716 12.37937927 C31.00530767 12.44433469 33.44012847 12.50350638 35.875 12.5625 C37.5338642 12.6057367 39.19271856 12.64935257 40.8515625 12.69335938 C44.90094104 12.79996003 48.95041963 12.9013767 53 13 C53 11.35 53 9.7 53 8 C50.69 7.67 48.38 7.34 46 7 C49.05263664 6.01879536 50.94736336 6.01879536 54 7 C54.04241723 9.33294775 54.04092937 11.66702567 54 14 C51.28293111 16.71706889 43.29889921 15.23021635 39.37475586 15.24023438 C37.10296434 15.2498291 34.83212142 15.28078171 32.56054688 15.3125 C23.47949292 15.37932214 14.2066566 15.44060106 6.625 9.75 C3.66461688 6.64864626 1.93998632 3.80535778 0 0 Z " fill="#DAE2C7" transform="translate(340,884)"/>
<path d="M0 0 C0.33 0 0.66 0 1 0 C1.00808685 0.59389023 1.01617371 1.18778046 1.02450562 1.79966736 C1.11095323 8.01354401 1.21047159 14.2271163 1.31738281 20.44067383 C1.35552791 22.75572576 1.39040532 25.07083403 1.421875 27.38598633 C1.46784087 30.72497619 1.52578247 34.06358294 1.5859375 37.40234375 C1.59748871 38.42770737 1.60903992 39.45307098 1.62094116 40.50950623 C1.74470382 46.61574759 2.47306611 52.08246149 4 58 C9.445 57.505 9.445 57.505 15 57 C12 60 12 60 8.5625 60.4375 C5 60 5 60 2.625 58.125 C0.07746945 54.7936139 -0.12316939 52.96283628 -0.11352539 48.81591797 C-0.11344986 47.73494843 -0.11337433 46.65397888 -0.11329651 45.54025269 C-0.10813522 44.36939117 -0.10297394 43.19852966 -0.09765625 41.9921875 C-0.0962413 40.79643097 -0.09482635 39.60067444 -0.09336853 38.36868286 C-0.08775663 34.53743013 -0.07520208 30.70623516 -0.0625 26.875 C-0.05748653 24.28255293 -0.05292336 21.69010494 -0.04882812 19.09765625 C-0.03778333 12.73175102 -0.02103359 6.36587963 0 0 Z " fill="#002406" transform="translate(762,821)"/>
<path d="M0 0 C2.64 0.33 5.28 0.66 8 1 C8 3.31 8 5.62 8 8 C-21.205 7.505 -21.205 7.505 -51 7 C-51 6.67 -51 6.34 -51 6 C-32.19 6 -13.38 6 6 6 C6 4.68 6 3.36 6 2 C4.02 2 2.04 2 0 2 C0 1.34 0 0.68 0 0 Z " fill="#DFDDC4" transform="translate(646,890)"/>
<path d="M0 0 C-0.66 1.32 -1.32 2.64 -2 4 C-2.66 4 -3.32 4 -4 4 C-4.23203125 4.556875 -4.4640625 5.11375 -4.703125 5.6875 C-8.513822 12.48247778 -15.48123885 17.94388195 -22 22 C-24.38459504 23.94264362 -26.69982706 25.95842639 -29 28 C-27.44930662 24.2950915 -25.18298272 21.93872722 -22.3515625 19.12109375 C-21.42859375 18.20005859 -20.505625 17.27902344 -19.5546875 16.33007812 C-19.07354492 15.85513916 -18.59240234 15.3802002 -18.09667969 14.89086914 C-16.63158808 13.44400611 -15.17462989 11.98932894 -13.71875 10.53320312 C-3.11911462 0 -3.11911462 0 0 0 Z " fill="#092F11" transform="translate(336,183)"/>
<path d="M0 0 C0.66 0 1.32 0 2 0 C2 1.65 2 3.3 2 5 C24.11 5 46.22 5 69 5 C69 5.33 69 5.66 69 6 C34.35 6.495 34.35 6.495 -1 7 C-1 1 -1 1 0 0 Z " fill="#DED9C0" transform="translate(232,891)"/>
<path d="M0 0 C1.98 0 3.96 0 6 0 C6 0.99 6 1.98 6 3 C6.62648438 3.20496094 7.25296875 3.40992188 7.8984375 3.62109375 C8.71570313 3.89050781 9.53296875 4.15992188 10.375 4.4375 C11.18710937 4.70433594 11.99921875 4.97117188 12.8359375 5.24609375 C16.78448806 6.62167183 16.78448806 6.62167183 18.24609375 9.1875 C20.79291529 13.27148999 24.21048852 16.26470268 27.70507812 19.5390625 C30.76261736 22.48699896 32.78604991 24.8982059 34 29 C31.49796339 26.51580323 29.0190484 24.02016343 26.59765625 21.45703125 C19.68697376 14.24819913 12.23018408 8.61959066 4 3 C2.65966129 2.00940931 1.32272958 1.01398434 0 0 Z " fill="#103013" transform="translate(603,226)"/>
<path d="M0 0 C3.67332013 1.54299498 6.0127604 3.76840101 8.80859375 6.578125 C9.72060547 7.49207031 10.63261719 8.40601563 11.57226562 9.34765625 C12.04317627 9.82477051 12.51408691 10.30188477 12.99926758 10.79345703 C14.42420273 12.23653344 15.85686103 13.67156061 17.29101562 15.10546875 C27.29893191 25.17694979 27.29893191 25.17694979 30 29 C29.67 29.99 29.34 30.98 29 32 C28.2471875 31.1028125 27.494375 30.205625 26.71875 29.28125 C19.82726011 21.15744871 12.6512036 13.46497843 5.03125 6.01757812 C4.37511719 5.37498047 3.71898437 4.73238281 3.04296875 4.0703125 C2.45539795 3.50070801 1.86782715 2.93110352 1.26245117 2.34423828 C0 1 0 1 0 0 Z " fill="#EEF4D7" transform="translate(702,190)"/>
<path d="M0 0 C0.66 0.33 1.32 0.66 2 1 C2.25350683 7.11796476 1.29728089 12.75557075 0.125 18.75 C-0.04902344 19.69488281 -0.22304688 20.63976562 -0.40234375 21.61328125 C-0.57636719 22.51949219 -0.75039063 23.42570312 -0.9296875 24.359375 C-1.08679199 25.17889648 -1.24389648 25.99841797 -1.40576172 26.84277344 C-2 29 -2 29 -4 32 C-3.60982114 24.11427987 -3.10844651 16.64311859 -1 9 C-0.57516937 6.00730426 -0.26483591 3.01076612 0 0 Z " fill="#0E3113" transform="translate(789,429)"/>
<path d="M0 0 C3.18748029 -0.02932572 6.37492528 -0.04690739 9.5625 -0.0625 C10.90538086 -0.07506836 10.90538086 -0.07506836 12.27539062 -0.08789062 C17.29997943 -0.10629571 22.04817291 0.13733602 27 1 C27.33 1.99 27.66 2.98 28 4 C22.72 3.67 17.44 3.34 12 3 C12 2.67 12 2.34 12 2 C8.04 1.67 4.08 1.34 0 1 C0 0.67 0 0.34 0 0 Z " fill="#E0DFC3" transform="translate(520,116)"/>
<path d="M0 0 C3.72910066 -0.0582462 7.45808364 -0.09367917 11.1875 -0.125 C12.24259766 -0.14175781 13.29769531 -0.15851562 14.38476562 -0.17578125 C15.40634766 -0.18222656 16.42792969 -0.18867187 17.48046875 -0.1953125 C18.41785889 -0.20578613 19.35524902 -0.21625977 20.32104492 -0.22705078 C23.21630812 0.01833287 25.37062697 0.79478381 28 2 C28 2.33 28 2.66 28 3 C18.43 2.67 8.86 2.34 -1 2 C-0.67 1.34 -0.34 0.68 0 0 Z " fill="#F6F4D8" transform="translate(285,732)"/>
<path d="M0 0 C0 0.33 0 0.66 0 1 C-8.91 1.66 -17.82 2.32 -27 3 C-27.33 2.01 -27.66 1.02 -28 0 C-25.02119476 -0.19697084 -22.04235614 -0.38277673 -19.0625 -0.5625 C-17.81629883 -0.64661133 -17.81629883 -0.64661133 -16.54492188 -0.73242188 C-10.88515939 -1.06275821 -5.61918533 -0.76547933 0 0 Z " fill="#E2E6CB" transform="translate(500,118)"/>
<path d="M0 0 C-0.33 10.56 -0.66 21.12 -1 32 C-1.33 32 -1.66 32 -2 32 C-2.33 22.43 -2.66 12.86 -3 3 C-5.64 3 -8.28 3 -11 3 C-7.13828168 1.00255949 -4.44822596 0 0 0 Z " fill="#123518" transform="translate(730,837)"/>
<path d="M0 0 C0.66 0.33 1.32 0.66 2 1 C0.06034099 5.58464857 -2.96874497 9.5842768 -7.0625 12.4375 C-9.40958661 13.11891224 -10.68679631 12.65885427 -13 12 C-12.14535156 11.21753906 -11.29070313 10.43507813 -10.41015625 9.62890625 C-9.29425993 8.60678273 -8.17837511 7.58464667 -7.0625 6.5625 C-6.21655273 5.7880957 -6.21655273 5.7880957 -5.35351562 4.99804688 C-2.64001674 2.53775333 -2.64001674 2.53775333 0 0 Z " fill="#0E3717" transform="translate(620,801)"/>
<path d="M0 0 C0.66 0 1.32 0 2 0 C2 3.38665987 1.54459576 5.41111843 -0.77734375 7.921875 C-6.0189759 12.50948795 -6.0189759 12.50948795 -9 14 C-9.33 13.01 -9.66 12.02 -10 11 C-9.44570313 10.45730469 -8.89140625 9.91460938 -8.3203125 9.35546875 C-7.23363281 8.28232422 -7.23363281 8.28232422 -6.125 7.1875 C-5.40570312 6.47980469 -4.68640625 5.77210938 -3.9453125 5.04296875 C-1.84641063 2.95600806 -1.84641063 2.95600806 0 0 Z " fill="#E2E5C6" transform="translate(726,578)"/>
<path d="M0 0 C-0.33 0.99 -0.66 1.98 -1 3 C-1.99 3 -2.98 3 -4 3 C-4 2.34 -4 1.68 -4 1 C-6.83355099 1.14228301 -9.66678787 1.28873416 -12.5 1.4375 C-13.68722656 1.49647461 -13.68722656 1.49647461 -14.8984375 1.55664062 C-19.97385441 1.82705218 -24.96375445 2.3127142 -30 3 C-23.10022719 -3.89977281 -8.83346137 -0.71206551 0 0 Z " fill="#123E20" transform="translate(726,774)"/>
<path d="M0 0 C0.66 0.66 1.32 1.32 2 2 C0.12612523 2.3396019 -1.74916697 2.67138691 -3.625 3 C-4.66914063 3.185625 -5.71328125 3.37125 -6.7890625 3.5625 C-9.93655382 3.99135527 -12.8301163 4.21798627 -16 4 C-16.66 3.34 -17.32 2.68 -18 2 C-12.02898766 0.23081116 -6.24329961 -0.78911594 0 0 Z " fill="#11391B" transform="translate(467,123)"/>
<path d="M0 0 C0 0.33 0 0.66 0 1 C-6.435 1.495 -6.435 1.495 -13 2 C-13 2.66 -13 3.32 -13 4 C-15.31 4 -17.62 4 -20 4 C-20 3.67 -20 3.34 -20 3 C-21.65 2.67 -23.3 2.34 -25 2 C-25 1.67 -25 1.34 -25 1 C-21.58444097 0.63455844 -18.1674656 0.28462134 -14.75 -0.0625 C-13.29787109 -0.2181543 -13.29787109 -0.2181543 -11.81640625 -0.37695312 C-10.88183594 -0.47041016 -9.94726562 -0.56386719 -8.984375 -0.66015625 C-8.12553711 -0.74918213 -7.26669922 -0.83820801 -6.38183594 -0.92993164 C-4.03174315 -0.99906619 -2.23550359 -0.69010991 0 0 Z " fill="#E1E5CA" transform="translate(556,676)"/>
<path d="M0 0 C1.051875 0.30744141 1.051875 0.30744141 2.125 0.62109375 C7.76853609 2.22367397 13.15876543 3.44894013 19 4 C18.67 4.66 18.34 5.32 18 6 C7.24899957 6.68867618 7.24899957 6.68867618 3.375 4.125 C1 2 1 2 0 0 Z " fill="#E8E9CE" transform="translate(665,812)"/>
<path d="M0 0 C0.66 0 1.32 0 2 0 C2.5775 0.928125 3.155 1.85625 3.75 2.8125 C6.21771167 6.30842487 8.09714793 7.4033787 12 9 C12 9.66 12 10.32 12 11 C14.97 11.495 14.97 11.495 18 12 C18 12.66 18 13.32 18 14 C11.9599213 12.85446783 8.42545203 11.52603048 4 7 C2.4769084 4.72009269 1.24951449 2.45097073 0 0 Z " fill="#E3E8CD" transform="translate(340,884)"/>
<path d="M0 0 C5.81266619 0.78549543 11.36877624 2.40682459 17 4 C17 4.66 17 5.32 17 6 C17.66 6 18.32 6 19 6 C19 6.66 19 7.32 19 8 C12.38757278 6.17778624 6.19479329 3.94776396 0 1 C0 0.67 0 0.34 0 0 Z " fill="#193B1D" transform="translate(606,113)"/>
<path d="M0 0 C1.47906892 -0.02689216 2.95827483 -0.04634621 4.4375 -0.0625 C5.26121094 -0.07410156 6.08492188 -0.08570313 6.93359375 -0.09765625 C9 0 9 0 10 1 C10.09873816 2.99799572 10.12971799 4.99957158 10.125 7 C10.12757813 8.093125 10.13015625 9.18625 10.1328125 10.3125 C10 13 10 13 9 14 C7.33382885 14.04063832 5.66611905 14.042721 4 14 C4.33 13.34 4.66 12.68 5 12 C5.99 12 6.98 12 8 12 C8 8.37 8 4.74 8 1 C5.36 1 2.72 1 0 1 C0 0.67 0 0.34 0 0 Z " fill="#E7EDD3" transform="translate(488,573)"/>
<path d="M0 0 C0.99 0.33 1.98 0.66 3 1 C2.343621 5.48525648 1.29925791 9.66914029 0 14 C-1.53508028 11.56661348 -2.03088304 10.32875493 -1.7578125 7.421875 C-1.54898438 6.54015625 -1.34015625 5.6584375 -1.125 4.75 C-0.92132813 3.85796875 -0.71765625 2.9659375 -0.5078125 2.046875 C-0.34023437 1.37140625 -0.17265625 0.6959375 0 0 Z M-2 14 C-1.67 14 -1.34 14 -1 14 C-1.33 16.31 -1.66 18.62 -2 21 C-2.93423645 17.98968256 -3.04449911 17.13349732 -2 14 Z " fill="#E3E2C4" transform="translate(228,308)"/>
<path d="M0 0 C0.66 0 1.32 0 2 0 C2.27972656 0.60585938 2.55945313 1.21171875 2.84765625 1.8359375 C5.63405256 7.65959539 8.81105951 12.74746878 12.7421875 17.87109375 C13.15726563 18.57363281 13.57234375 19.27617188 14 20 C13.67 20.99 13.34 21.98 13 23 C8.38 16.07 3.76 9.14 -1 2 C-0.67 1.34 -0.34 0.68 0 0 Z " fill="#133113" transform="translate(601,826)"/>
<path d="M0 0 C0.66 0 1.32 0 2 0 C2.66 2.97 3.32 5.94 4 9 C9.445 8.505 9.445 8.505 15 8 C12 11 12 11 8.5625 11.4375 C5 11 5 11 2.625 9.4375 C0.5476514 6.3214771 0.28425891 3.69536586 0 0 Z " fill="#0E2F11" transform="translate(762,870)"/>
<path d="M0 0 C0.33 0.99 0.66 1.98 1 3 C-1.96507081 4.29721848 -4.94567538 5.33110146 -8.0625 6.1875 C-8.71347656 6.36667969 -9.36445313 6.54585937 -10.03515625 6.73046875 C-12.28398558 7.03895627 -13.84998772 6.67517089 -16 6 C-13.7101766 4.9955866 -11.4183401 3.99632388 -9.125 3 C-8.14853516 2.57074219 -8.14853516 2.57074219 -7.15234375 2.1328125 C-2.2265625 0 -2.2265625 0 0 0 Z " fill="#1C361B" transform="translate(415,136)"/>
<path d="M0 0 C4.92127143 4.11779854 9.51454836 8.41462494 14 13 C14.99885387 14.00114482 15.99849284 15.00150943 17 16 C15.02 16.99 15.02 16.99 13 18 C12.89115479 17.40074707 12.78230957 16.80149414 12.67016602 16.18408203 C11.91930554 13.73701543 11.12078807 12.7927495 9.27734375 11.0546875 C8.73916016 10.53519531 8.20097656 10.01570312 7.64648438 9.48046875 C7.08251953 8.95066406 6.51855469 8.42085937 5.9375 7.875 C3.90735136 5.95315668 1.94444769 4.01190213 0 2 C0 1.34 0 0.68 0 0 Z " fill="#F1F3D6" transform="translate(309,590)"/>
<path d="M0 0 C-4.11788185 4.11788185 -8.46442815 4.22833229 -14.01171875 4.265625 C-16 4 -16 4 -18 2 C-14.04 2 -10.08 2 -6 2 C-6 1.34 -6 0.68 -6 0 C-3.50907189 -1.24546405 -2.58919267 -0.7767578 0 0 Z " fill="#19381B" transform="translate(720,877)"/>
<path d="M0 0 C4.00660357 0.55647272 6.07665236 2.55838114 9 5.25 C10.2684375 6.40242187 10.2684375 6.40242187 11.5625 7.578125 C13.92414747 9.92463371 15.97729625 12.35924788 18 15 C12.36270742 12.49453663 8.25818991 8.36737426 4 4 C3.236875 3.236875 2.47375 2.47375 1.6875 1.6875 C1.130625 1.130625 0.57375 0.57375 0 0 Z " fill="#EAF0D3" transform="translate(614,235)"/>
<path d="M0 0 C-0.99 0.33 -1.98 0.66 -3 1 C-3 1.66 -3 2.32 -3 3 C-4.93356782 3.69848264 -6.87202298 4.38344814 -8.8125 5.0625 C-9.89144531 5.44535156 -10.97039063 5.82820312 -12.08203125 6.22265625 C-15 7 -15 7 -18 6 C-15.69 5.34 -13.38 4.68 -11 4 C-11 3.34 -11 2.68 -11 2 C-7.17679443 0.57741188 -4.08718695 -0.24042276 0 0 Z " fill="#0C3214" transform="translate(703,829)"/>
<path d="M0 0 C-3.13498292 1.85776765 -5.37471432 2.20140476 -9 2 C-9.33 4.97 -9.66 7.94 -10 11 C-10.33 11 -10.66 11 -11 11 C-11 7.37 -11 3.74 -11 0 C-6.94952424 -1.35015859 -4.2079832 -0.62084998 0 0 Z " fill="#DDE2C5" transform="translate(351,574)"/>
<path d="M0 0 C0.66 0 1.32 0 2 0 C2.55573751 2.12136362 3.09421768 4.24725521 3.625 6.375 C3.92664063 7.55835938 4.22828125 8.74171875 4.5390625 9.9609375 C4.69117188 10.96382813 4.84328125 11.96671875 5 13 C4.34 13.66 3.68 14.32 3 15 C2.87625 14.21625 2.7525 13.4325 2.625 12.625 C2.20882007 9.85942178 2.20882007 9.85942178 0 8 C-0.26991906 5.31160615 -0.08737357 2.70858064 0 0 Z " fill="#16371C" transform="translate(781,320)"/>
<path d="M0 0 C4.13429466 0.55975011 6.54715288 2.81705013 9.6875 5.4375 C10.66074219 6.24058594 11.63398437 7.04367188 12.63671875 7.87109375 C15 10 15 10 16 12 C14.68 12 13.36 12 12 12 C11.9175 11.38125 11.835 10.7625 11.75 10.125 C11.21402521 7.89696204 11.21402521 7.89696204 9.375 7 C8.59125 6.67 7.8075 6.34 7 6 C5.7430424 5.30408785 4.49339686 4.59486134 3.25 3.875 C2.1775 3.25625 1.105 2.6375 0 2 C0 1.34 0 0.68 0 0 Z " fill="#E9EED1" transform="translate(693,161)"/>
<path d="M0 0 C0.33 0.66 0.66 1.32 1 2 C1.66 2.33 2.32 2.66 3 3 C2.38125 3.433125 1.7625 3.86625 1.125 4.3125 C-1.2197245 5.99740483 -1.2197245 5.99740483 -3 9 C-4.32 8.34 -5.64 7.68 -7 7 C-4.69 4.69 -2.38 2.38 0 0 Z M3 1 C5 2 5 2 5 2 Z " fill="#E0DFC0" transform="translate(582,818)"/>
<path d="M0 0 C0.99 0.33 1.98 0.66 3 1 C3.87890625 2.9609375 3.87890625 2.9609375 4.5625 5.375 C5.45012686 8.45411239 6.18224782 10.27337172 8 13 C7.625 15.1875 7.625 15.1875 7 17 C5.82592979 14.73272667 4.66060261 12.46165376 3.5 10.1875 C3.16613281 9.54490234 2.83226562 8.90230469 2.48828125 8.24023438 C0.99760916 5.30452301 0 3.33873483 0 0 Z " fill="#173519" transform="translate(261,517)"/>
<path d="M0 0 C0.33 0.66 0.66 1.32 1 2 C0.67 2.66 0.34 3.32 0 4 C-0.99 4 -1.98 4 -3 4 C-3.33 4.99 -3.66 5.98 -4 7 C-6.0625 8.1875 -6.0625 8.1875 -8 9 C-8.66 8.34 -9.32 7.68 -10 7 C-6.7 4.69 -3.4 2.38 0 0 Z " fill="#0A3112" transform="translate(364,161)"/>
<path d="M0 0 C3.3 0.33 6.6 0.66 10 1 C10 1.66 10 2.32 10 3 C10.99 3 11.98 3 13 3 C13 3.66 13 4.32 13 5 C11.39536551 4.68991116 9.79130769 4.37683713 8.1875 4.0625 C7.29417969 3.88847656 6.40085937 3.71445312 5.48046875 3.53515625 C3 3 3 3 0 2 C0 1.34 0 0.68 0 0 Z " fill="#1D3C20" transform="translate(425,663)"/>
<path d="M0 0 C4.60209225 -0.17700355 6.78370866 -0.10814567 11 2 C11 5.63 11 9.26 11 13 C10.67 13 10.34 13 10 13 C10 9.7 10 6.4 10 3 C7.03 3 4.06 3 1 3 C0.67 2.01 0.34 1.02 0 0 Z " fill="#E5E0C3" transform="translate(485,572)"/>
<path d="M0 0 C0.33 0 0.66 0 1 0 C1.38854209 2.28940956 1.7604628 4.58164574 2.125 6.875 C2.33382812 8.15117187 2.54265625 9.42734375 2.7578125 10.7421875 C2.83773437 11.81726563 2.91765625 12.89234375 3 14 C2.34 14.66 1.68 15.32 1 16 C0.44276981 13.89990127 -0.09531745 11.79471535 -0.625 9.6875 C-1.07746094 7.92986328 -1.07746094 7.92986328 -1.5390625 6.13671875 C-2 3 -2 3 0 0 Z " fill="#15391C" transform="translate(650,274)"/>
<path d="M0 0 C0.99 0.66 1.98 1.32 3 2 C1.35 3.98 -0.3 5.96 -2 8 C-3.32 7.34 -4.64 6.68 -6 6 C-4 4 -2 2 0 0 Z " fill="#163E1D" transform="translate(701,847)"/>
<path d="M0 0 C-0.66 1.32 -1.32 2.64 -2 4 C-2.66 4 -3.32 4 -4 4 C-4.33 4.99 -4.66 5.98 -5 7 C-7.9375 8.75 -7.9375 8.75 -11 10 C-11.66 9.67 -12.32 9.34 -13 9 C-11.21326795 7.4941255 -9.42046492 5.9954515 -7.625 4.5 C-6.62726562 3.6646875 -5.62953125 2.829375 -4.6015625 1.96875 C-2 0 -2 0 0 0 Z " fill="#E3E9CC" transform="translate(695,611)"/>
<path d="M0 0 C5.6626826 2.8313413 9.15619099 5.98756041 13 11 C10 11 10 11 7.625 8.6875 C6.75875 7.800625 5.8925 6.91375 5 6 C4.071875 5.46375 3.14375 4.9275 2.1875 4.375 C1.465625 3.92125 0.74375 3.4675 0 3 C0 2.01 0 1.02 0 0 Z " fill="#143416" transform="translate(319,739)"/>
<path d="M0 0 C0.66 0 1.32 0 2 0 C2.24234375 0.50789062 2.4846875 1.01578125 2.734375 1.5390625 C4.87798137 5.94170019 7.19200344 9.98857634 10 14 C9.67 14.66 9.34 15.32 9 16 C7.49130977 13.90160347 5.99301643 11.79700219 4.5 9.6875 C4.07074219 9.09259766 3.64148438 8.49769531 3.19921875 7.88476562 C0 3.33984375 0 3.33984375 0 0 Z " fill="#0C2E0E" transform="translate(276,544)"/>
<path d="M0 0 C2 3 2 3 2 5 C1.34 5 0.68 5 0 5 C-0.33 5.99 -0.66 6.98 -1 8 C-3.5625 9.6875 -3.5625 9.6875 -6 11 C-4.54955729 6.89041233 -2.48889248 3.56741255 0 0 Z " fill="#ECEED3" transform="translate(570,353)"/>
<path d="M0 0 C2.14014979 4.28029958 2.15816979 4.88772754 1.125 9.25 C0.92132812 10.14203125 0.71765625 11.0340625 0.5078125 11.953125 C0.34023438 12.62859375 0.17265625 13.3040625 0 14 C-0.99 14.33 -1.98 14.66 -3 15 C-2.01 10.05 -1.02 5.1 0 0 Z " fill="#C5CFB2" transform="translate(579,324)"/>
<path d="M0 0 C2.34914492 2.34914492 2.73140357 3.95679446 3.625 7.125 C3.88539063 8.03507812 4.14578125 8.94515625 4.4140625 9.8828125 C4.70410156 10.93082031 4.70410156 10.93082031 5 12 C4.01 12 3.02 12 2 12 C1.01 8.37 0.02 4.74 -1 1 C-0.67 0.67 -0.34 0.34 0 0 Z " fill="#1A391E" transform="translate(772,291)"/>
<path d="M0 0 C3.37898381 1.44813592 5.49631932 3.32940727 8 6 C8.66 6.66 9.32 7.32 10 8 C6.58678765 8 5.60527115 7.33132534 2.8125 5.5 C2.09707031 5.0359375 1.38164063 4.571875 0.64453125 4.09375 C0.10183594 3.7328125 -0.44085937 3.371875 -1 3 C-0.67 2.01 -0.34 1.02 0 0 Z " fill="#183B1C" transform="translate(675,144)"/>
<path d="M0 0 C4.62 0.99 9.24 1.98 14 3 C14 3.33 14 3.66 14 4 C8.16605611 5.10643764 5.23420787 5.27137992 0 2 C0 1.34 0 0.68 0 0 Z " fill="#1B3B1E" transform="translate(430,685)"/>
<path d="M0 0 C3.2826932 1.49076434 5.93077441 3.38620321 8.75 5.625 C9.94882812 6.57246094 9.94882812 6.57246094 11.171875 7.5390625 C11.77515625 8.02117188 12.3784375 8.50328125 13 9 C12.01 9.33 11.02 9.66 10 10 C8.02734375 8.671875 8.02734375 8.671875 5.9375 6.75 C5.24527344 6.12609375 4.55304688 5.5021875 3.83984375 4.859375 C2 3 2 3 0 0 Z " fill="#E8ECD0" transform="translate(327,608)"/>
<path d="M0 0 C2.58421184 2.24714073 3.24916308 3.71508847 4 7 C4.96887581 9.01526169 5.9641321 11.01833966 7 13 C6.01 13.495 6.01 13.495 5 14 C3.96958487 12.04669132 2.9509107 10.08718472 1.9375 8.125 C1.08478516 6.48917969 1.08478516 6.48917969 0.21484375 4.8203125 C-0.18605469 3.88960938 -0.58695313 2.95890625 -1 2 C-0.67 1.34 -0.34 0.68 0 0 Z " fill="#16371A" transform="translate(610,487)"/>
<path d="M0 0 C0.33 0.66 0.66 1.32 1 2 C0.0520411 4.02518491 -0.95191959 6.02477154 -2 8 C-2.33 8.99 -2.66 9.98 -3 11 C-3.99 11 -4.98 11 -6 11 C-6 11.66 -6 12.32 -6 13 C-6.66 12.67 -7.32 12.34 -8 12 C-5.36 8.04 -2.72 4.08 0 0 Z " fill="#0C2E11" transform="translate(282,241)"/>
<path d="M0 0 C0.33 0.66 0.66 1.32 1 2 C1.66 2 2.32 2 3 2 C3.268125 2.7425 3.53625 3.485 3.8125 4.25 C4.94229421 6.86636554 6.20893202 8.80187111 8 11 C7.67 11.66 7.34 12.32 7 13 C5.63353852 11.40629329 4.28212834 9.79967018 2.9375 8.1875 C2.18339844 7.29417969 1.42929687 6.40085938 0.65234375 5.48046875 C0.10707031 4.66191406 -0.43820312 3.84335938 -1 3 C-0.67 2.01 -0.34 1.02 0 0 Z " fill="#0E3112" transform="translate(746,207)"/>
<path d="M0 0 C4.02992782 0.55312735 8.02022924 1.1558062 12 2 C12 2.99 12 3.98 12 5 C10.37247769 4.74476126 8.74796804 4.47025506 7.125 4.1875 C6.22007812 4.03667969 5.31515625 3.88585937 4.3828125 3.73046875 C2 3 2 3 0 0 Z " fill="#133618" transform="translate(572,103)"/>
<path d="M0 0 C0.33 0 0.66 0 1 0 C1.33 4.29 1.66 8.58 2 13 C1.34 13 0.68 13 0 13 C-0.33 13.66 -0.66 14.32 -1 15 C-0.67 10.05 -0.34 5.1 0 0 Z " fill="#062C0E" transform="translate(375,764)"/>
<path d="M0 0 C4.69564393 3.31457218 7.72469104 7.36279281 11 12 C10.01 12 9.02 12 8 12 C5.95703125 9.8828125 5.95703125 9.8828125 3.8125 7.125 C3.09707031 6.22007812 2.38164062 5.31515625 1.64453125 4.3828125 C0 2 0 2 0 0 Z " fill="#E6EDD1" transform="translate(296,575)"/>
<path d="M0 0 C0.66 0.33 1.32 0.66 2 1 C1.67 2.32 1.34 3.64 1 5 C1 4.34 1 3.68 1 3 C-1.64 5.31 -4.28 7.62 -7 10 C-7.66 9.67 -8.32 9.34 -9 9 C-6.03 6.03 -3.06 3.06 0 0 Z " fill="#0D290B" transform="translate(732,880)"/>
<path d="M0 0 C1.98 0.99 1.98 0.99 4 2 C4 5 4 5 2 7.1875 C1.34 7.785625 0.68 8.38375 0 9 C0 6.03 0 3.06 0 0 Z " fill="#EFEFD4" transform="translate(508,867)"/>
<path d="M0 0 C0.66 0.33 1.32 0.66 2 1 C0.35 1.66 -1.3 2.32 -3 3 C-3 3.66 -3 4.32 -3 5 C-3.99 5 -4.98 5 -6 5 C-6.33 5.99 -6.66 6.98 -7 8 C-7.66 7.67 -8.32 7.34 -9 7 C-8 4 -8 4 -6.22265625 2.796875 C-5.50980469 2.45140625 -4.79695313 2.1059375 -4.0625 1.75 C-3.35222656 1.39421875 -2.64195312 1.0384375 -1.91015625 0.671875 C-1.27980469 0.45015625 -0.64945312 0.2284375 0 0 Z " fill="#0A2D11" transform="translate(385,149)"/>
<path d="M0 0 C1.8125 0.1875 1.8125 0.1875 4 1 C5.5625 3.3125 5.5625 3.3125 7 6 C7.98244845 7.34631825 8.97676564 8.68441297 10 10 C5.86360664 8.40907948 2.76786752 5.39525082 0 2 C0 1.34 0 0.68 0 0 Z " fill="#EFF2D6" transform="translate(295,600)"/>
<path d="M0 0 C0.66 0.33 1.32 0.66 2 1 C-1.625 5.875 -1.625 5.875 -5 7 C-5.33 6.01 -5.66 5.02 -6 4 C-3.94766315 1.7522025 -2.99332739 0.9977758 0 0 Z " fill="#154220" transform="translate(745,587)"/>
<path d="M0 0 C3.16470185 4.74705277 3.10927475 8.31771295 3 14 C-0.26566506 9.10150241 -0.09311493 5.68001091 0 0 Z " fill="#EEF3D6" transform="translate(239,458)"/>
<path d="M0 0 C-3.40351338 2.03219488 -6.3232927 2.36891039 -10.25 2.625 C-11.86648438 2.73714844 -11.86648438 2.73714844 -13.515625 2.8515625 C-14.33546875 2.90054688 -15.1553125 2.94953125 -16 3 C-10.7295574 0.26675078 -5.90595006 -1.78968184 0 0 Z " fill="#F1F4D8" transform="translate(473,120)"/>
<path d="M0 0 C1.32 0.66 2.64 1.32 4 2 C4 2.99 4 3.98 4 5 C2.35 5 0.7 5 -1 5 C-1.33 4.01 -1.66 3.02 -2 2 C-1.34 1.34 -0.68 0.68 0 0 Z " fill="#DFE4C9" transform="translate(504,863)"/>
<path d="M0 0 C0.99 0.66 1.98 1.32 3 2 C2.01 2.33 1.02 2.66 0 3 C-1.16953416 5.42383077 -1.16953416 5.42383077 -2 8 C-2.33 8.66 -2.66 9.32 -3 10 C-3.66 10 -4.32 10 -5 10 C-3.66511872 6.40608886 -2.03977277 3.24509304 0 0 Z " fill="#E3E9CC" transform="translate(405,803)"/>
<path d="M0 0 C1 3 1 3 -0.1875 6.625 C-0.785625 7.73875 -1.38375 8.8525 -2 10 C-3.32 10.33 -4.64 10.66 -6 11 C-4.02 7.37 -2.04 3.74 0 0 Z " fill="#0F3112" transform="translate(372,783)"/>
<path d="M0 0 C4.43458973 1.3937282 6.87378374 3.60582235 10 7 C9.67 7.66 9.34 8.32 9 9 C8.01 9 7.02 9 6 9 C5.938125 8.443125 5.87625 7.88625 5.8125 7.3125 C4.66626128 4.05012827 2.50609803 2.31332126 0 0 Z " fill="#F3F6D8" transform="translate(354,734)"/>
<path d="M0 0 C4.62 0 9.24 0 14 0 C14 0.33 14 0.66 14 1 C12.02 1 10.04 1 8 1 C8 1.66 8 2.32 8 3 C6.68 3 5.36 3 4 3 C4 2.34 4 1.68 4 1 C2.68 0.67 1.36 0.34 0 0 Z " fill="#173A1D" transform="translate(536,695)"/>
<path d="M0 0 C0.33 1.32 0.66 2.64 1 4 C-0.65 5.32 -2.3 6.64 -4 8 C-4.66 7.67 -5.32 7.34 -6 7 C-4.02 4.69 -2.04 2.38 0 0 Z " fill="#0A2F12" transform="translate(749,580)"/>
<path d="M0 0 C0.66 0.33 1.32 0.66 2 1 C-0.97 5.95 -0.97 5.95 -4 11 C-5.25541557 7.23375329 -4.37061958 5.62811066 -3 2 C-2.01 2 -1.02 2 0 2 C0 1.34 0 0.68 0 0 Z " fill="#E7ECCF" transform="translate(767,550)"/>
<path d="M0 0 C2.31 0.33 4.62 0.66 7 1 C6.01 1.495 6.01 1.495 5 2 C5.33 3.32 5.66 4.64 6 6 C5.01 6 4.02 6 3 6 C0 2.66666667 0 2.66666667 0 0 Z " fill="#193A1E" transform="translate(557,407)"/>
<path d="M0 0 C0.99 0 1.98 0 3 0 C6.28571429 7.42857143 6.28571429 7.42857143 7 11 C4.0444623 8.24829249 1.88436685 5.58029701 0 2 C0 1.34 0 0.68 0 0 Z " fill="#ECF0D3" transform="translate(585,857)"/>
<path d="M0 0 C0.33 1.32 0.66 2.64 1 4 C1.66 4.33 2.32 4.66 3 5 C1.625 7.5 1.625 7.5 0 10 C-0.66 10 -1.32 10 -2 10 C-1.34 6.7 -0.68 3.4 0 0 Z " fill="#D8DDBF" transform="translate(379,544)"/>
<path d="M0 0 C1.65 0 3.3 0 5 0 C5 0.66 5 1.32 5 2 C5.804375 2.12375 6.60875 2.2475 7.4375 2.375 C8.7059375 2.684375 8.7059375 2.684375 10 3 C10.33 3.66 10.66 4.32 11 5 C6.87248551 4.39301257 3.6678852 2.96189209 0 1 C0 0.67 0 0.34 0 0 Z " fill="#0A2E0E" transform="translate(587,218)"/>
<path d="M0 0 C2.99220268 1.36370299 5.29026529 2.94908083 7.75 5.125 C8.67039062 5.93324219 8.67039062 5.93324219 9.609375 6.7578125 C10.06828125 7.16773438 10.5271875 7.57765625 11 8 C10.34 8.66 9.68 9.32 9 10 C7.49702124 8.52386015 5.99768715 7.04400843 4.5 5.5625 C3.6646875 4.73878906 2.829375 3.91507813 1.96875 3.06640625 C0 1 0 1 0 0 Z " fill="#183619" transform="translate(714,176)"/>
<path d="M0 0 C4.59306496 1.4859916 7.43569245 3.85014682 11 7 C10.01 7.495 10.01 7.495 9 8 C7.49460339 7.05016642 5.99579653 6.08988109 4.5 5.125 C3.6646875 4.59132812 2.829375 4.05765625 1.96875 3.5078125 C1.3190625 3.01023438 0.669375 2.51265625 0 2 C0 1.34 0 0.68 0 0 Z " fill="#143317" transform="translate(679,173)"/>
<path d="M0 0 C0.33 0.66 0.66 1.32 1 2 C-0.375 4 -0.375 4 -2 6 C-3.66666667 6 -5.33333333 6 -7 6 C-4.69 4.02 -2.38 2.04 0 0 Z " fill="#EEF2D6" transform="translate(422,786)"/>
<path d="M0 0 C0 3.16880694 -0.2058242 4.43689172 -2 7 C-4.625 7.75 -4.625 7.75 -7 8 C-6.02133662 6.85373678 -5.04205413 5.70800212 -4.0625 4.5625 C-3.51722656 3.92441406 -2.97195313 3.28632813 -2.41015625 2.62890625 C-1.63204305 1.73008851 -0.84063472 0.84063472 0 0 Z " fill="#19371A" transform="translate(631,369)"/>
<path d="M0 0 C0.66 0 1.32 0 2 0 C1.54917531 1.46067199 1.08906463 2.91848032 0.625 4.375 C0.36976563 5.18710937 0.11453125 5.99921875 -0.1484375 6.8359375 C-1 9 -1 9 -3 11 C-2.53199289 6.94393835 -2.12046792 3.53411321 0 0 Z " fill="#0A2C10" transform="translate(255,290)"/>
<path d="M0 0 C0.99 0.33 1.98 0.66 3 1 C2.67 1.66 2.34 2.32 2 3 C1.34 3 0.68 3 0 3 C-0.309375 3.94875 -0.61875 4.8975 -0.9375 5.875 C-2 9 -2 9 -3 11 C-3.66 10.67 -4.32 10.34 -5 10 C-3.35 6.7 -1.7 3.4 0 0 Z " fill="#0C2C0F" transform="translate(262,275)"/>
<path d="M0 0 C3.82097239 0.53069061 6.06171403 1.49701566 9 4 C7.3125 4.8125 7.3125 4.8125 5 5 C2.25 2.5625 2.25 2.5625 0 0 Z " fill="#113417" transform="translate(354,229)"/>
<path d="M0 0 C0.66 0.99 1.32 1.98 2 3 C-1.4352048 5.29013653 -2.985331 5.17842973 -7 5 C-4.702779 3.25728062 -2.40133271 1.60088848 0 0 Z " fill="#153D1B" transform="translate(375,154)"/>
<path d="M0 0 C0 0.99 0 1.98 0 3 C-2.5 4.6875 -2.5 4.6875 -5 6 C-5 5.34 -5 4.68 -5 4 C-6.32 3.67 -7.64 3.34 -9 3 C-6.03 2.01 -3.06 1.02 0 0 Z " fill="#264529" transform="translate(771,896)"/>
<path d="M0 0 C0.99 0 1.98 0 3 0 C5.1875 3 5.1875 3 7 6 C4 6 4 6 1.8125 4.125 C0 2 0 2 0 0 Z " fill="#234426" transform="translate(318,597)"/>
<path d="M0 0 C3.36720387 1.39332574 4.9859524 2.9789286 7 6 C4 6 4 6 1.8125 4.125 C0 2 0 2 0 0 Z " fill="#244426" transform="translate(584,567)"/>
<path d="M0 0 C2.95183101 2.95183101 3.08663988 5.95511947 4 10 C3.01 9.67 2.02 9.34 1 9 C0.67 6.03 0.34 3.06 0 0 Z " fill="#D6DDC1" transform="translate(792,292)"/>
<path d="M0 0 C0.99 0.66 1.98 1.32 3 2 C2.01 3.98 1.02 5.96 0 8 C-0.66 8 -1.32 8 -2 8 C-1.125 1.125 -1.125 1.125 0 0 Z " fill="#183A1D" transform="translate(246,259)"/>
<path d="M0 0 C4.67692308 1.47692308 4.67692308 1.47692308 6.3125 4.125 C6.539375 4.74375 6.76625 5.3625 7 6 C4 6 4 6 1.8125 4.125 C0 2 0 2 0 0 Z " fill="#193C20" transform="translate(725,186)"/>
<path d="M0 0 C2.97 0.495 2.97 0.495 6 1 C6 1.66 6 2.32 6 3 C5.01 3 4.02 3 3 3 C3 3.66 3 4.32 3 5 C2.34 5 1.68 5 1 5 C0.67 3.35 0.34 1.7 0 0 Z " fill="#E7E2C3" transform="translate(724,827)"/>
<path d="M0 0 C0.66 0.33 1.32 0.66 2 1 C1.67 4.3 1.34 7.6 1 11 C-1.26609984 6.46780033 -0.92735976 4.82227075 0 0 Z " fill="#153D1D" transform="translate(530,745)"/>
<path d="M0 0 C0.66 0.33 1.32 0.66 2 1 C2 2.98 2 4.96 2 7 C1.01 7.495 1.01 7.495 0 8 C-0.38063221 5.6739143 -0.71269945 3.33944736 -1 1 C-0.67 0.67 -0.34 0.34 0 0 Z " fill="#163D1E" transform="translate(250,487)"/>
<path d="M0 0 C2.08954032 4.17908064 2.16552619 4.80410573 1 9 C0.34 9 -0.32 9 -1 9 C-0.67 6.03 -0.34 3.06 0 0 Z " fill="#DAE1C2" transform="translate(397,819)"/>
<path d="M0 0 C0.33 0.99 0.66 1.98 1 3 C0.01 4.485 0.01 4.485 -1 6 C-2.32 5.34 -3.64 4.68 -5 4 C-3.35 2.68 -1.7 1.36 0 0 Z " fill="#0E3315" transform="translate(679,645)"/>
<path d="M0 0 C0.99 0.33 1.98 0.66 3 1 C2.01 2.32 1.02 3.64 0 5 C-0.99 4.67 -1.98 4.34 -3 4 C-3 3.34 -3 2.68 -3 2 C-2.01 1.34 -1.02 0.68 0 0 Z " fill="#E5E5C9" transform="translate(668,630)"/>
<path d="M0 0 C0.99 0 1.98 0 3 0 C1.63016497 3.16115776 1.0109362 3.9927092 -2 6 C-1.125 1.125 -1.125 1.125 0 0 Z " fill="#244426" transform="translate(710,592)"/>
<path d="M0 0 C0.66 0 1.32 0 2 0 C5.22265625 5.2734375 5.22265625 5.2734375 6 7 C5.67 7.66 5.34 8.32 5 9 C0 3.375 0 3.375 0 0 Z " fill="#E6E9CC" transform="translate(277,578)"/>
<path d="M0 0 C0.66 0.99 1.32 1.98 2 3 C1.34 4.32 0.68 5.64 0 7 C-0.66 7 -1.32 7 -2 7 C-1.125 2.25 -1.125 2.25 0 0 Z " fill="#EDEDCF" transform="translate(765,519)"/>
<path d="M0 0 C0.33 0.66 0.66 1.32 1 2 C0.22265625 3.7265625 0.22265625 3.7265625 -0.9375 5.625 C-1.618125 6.73875 -2.29875 7.8525 -3 9 C-3.66 9 -4.32 9 -5 9 C-5 6 -5 6 -3.625 4.5 C-3.08875 4.005 -2.5525 3.51 -2 3 C-1.34 2.01 -0.68 1.02 0 0 Z " fill="#092C0E" transform="translate(252,251)"/>
<path d="M0 0 C0.99 0 1.98 0 3 0 C2.67 0.99 2.34 1.98 2 3 C1.01 3 0.02 3 -1 3 C-1.33 3.99 -1.66 4.98 -2 6 C-2.66 6 -3.32 6 -4 6 C-2.84826645 3.53199953 -1.95216435 1.95216435 0 0 Z " fill="#E5E8CC" transform="translate(295,194)"/>
<path d="M0 0 C0.33 0.99 0.66 1.98 1 3 C-3.625 5.125 -3.625 5.125 -7 4 C-2.25 0 -2.25 0 0 0 Z " fill="#184224" transform="translate(415,136)"/>
</svg>
